HIERARCHY
ROOT Hips
{
	OFFSET 0.000000 83.214638 0.000000
	CHANNELS 6 Xposition Yposition Zposition Xrotation Yrotation Zrotation
	JOINT Pelvis
	{
		OFFSET 0.000000 0.000000 0.000000
		CHANNELS 3 Xrotation Yrotation Zrotation
		JOINT LeftUpLeg
		{
			OFFSET 8.479700 -4.795502 -0.379100
			CHANNELS 3 Xrotation Yrotation Zrotation
			JOINT LeftLeg
			{
				OFFSET 0.024144 -32.555107 0.112900
				CHANNELS 3 Xrotation Yrotation Zrotation
				JOINT LeftFoot
				{
					OFFSET -0.024144 -32.638630 -3.012600
					CHANNELS 3 Xrotation Yrotation Zrotation
					JOINT LeftToeBase
					{
						OFFSET 0.970200 -13.225400 11.864200
						CHANNELS 3 Xrotation Yrotation Zrotation
						End Site
						{
							OFFSET 0.000000 12.319262 0.000000
						}
					}
					JOINT LFootTongue
					{
						OFFSET 1.142400 -1.059800 6.665200
						CHANNELS 3 Xrotation Yrotation Zrotation
						End Site
						{
							OFFSET 0.000000 12.319262 0.000000
						}
					}
				}
				JOINT LeftPantLeg
				{
					OFFSET 0.918482 -16.533964 -2.284700
					CHANNELS 3 Xrotation Yrotation Zrotation
					End Site
					{
						OFFSET 0.350399 24.744368 0.000000
					}
				}
			}
		}
		JOINT RightUpLeg
		{
			OFFSET -8.479700 -4.795502 -0.379100
			CHANNELS 3 Xrotation Yrotation Zrotation
			JOINT RightLeg
			{
				OFFSET -0.023144 -32.555092 0.112900
				CHANNELS 3 Xrotation Yrotation Zrotation
				JOINT RightFoot
				{
					OFFSET 0.023144 -32.638641 -3.012700
					CHANNELS 3 Xrotation Yrotation Zrotation
					JOINT RightToeBase
					{
						OFFSET -0.970200 -13.225400 11.864200
						CHANNELS 3 Xrotation Yrotation Zrotation
						End Site
						{
							OFFSET 0.000000 12.319244 0.000000
						}
					}
					JOINT RFootTongue
					{
						OFFSET -1.142200 -1.059800 6.665200
						CHANNELS 3 Xrotation Yrotation Zrotation
						End Site
						{
							OFFSET 0.000000 12.319243 0.000000
						}
					}
				}
				JOINT RightPantLeg
				{
					OFFSET -0.919482 -16.533978 -2.284800
					CHANNELS 3 Xrotation Yrotation Zrotation
					End Site
					{
						OFFSET -0.350400 24.744419 0.000000
					}
				}
			}
		}
	}
	JOINT Spine
	{
		OFFSET 0.000000 7.722000 1.166200
		CHANNELS 3 Xrotation Yrotation Zrotation
		JOINT Spine1
		{
			OFFSET 0.000000 12.024101 0.248800
			CHANNELS 3 Xrotation Yrotation Zrotation
			JOINT Spine2
			{
				OFFSET 0.000000 11.502998 -0.491200
				CHANNELS 3 Xrotation Yrotation Zrotation
				JOINT Neck
				{
					OFFSET 0.000000 18.430702 -3.123100
					CHANNELS 3 Xrotation Yrotation Zrotation
					JOINT Head
					{
						OFFSET 0.000000 9.051102 1.034000
						CHANNELS 3 Xrotation Yrotation Zrotation
						JOINT HairB
						{
							OFFSET 0.208400 24.786102 24.822300
							CHANNELS 3 Xrotation Yrotation Zrotation
							End Site
							{
								OFFSET 0.000000 32.263779 0.000000
							}
						}
						JOINT HairA
						{
							OFFSET -7.081100 24.428299 23.196600
							CHANNELS 3 Xrotation Yrotation Zrotation
							End Site
							{
								OFFSET 0.000000 32.263779 0.000000
							}
						}
						JOINT Hat
						{
							OFFSET 16.728800 15.048294 -15.439601
							CHANNELS 3 Xrotation Yrotation Zrotation
							End Site
							{
								OFFSET 0.000000 32.263779 0.000000
							}
						}
					}
				}
				JOINT LeftShoulder
				{
					OFFSET 6.197800 13.665199 -4.064700
					CHANNELS 3 Xrotation Yrotation Zrotation
					JOINT LeftArm
					{
						OFFSET 7.778100 -0.187103 -1.709300
						CHANNELS 3 Xrotation Yrotation Zrotation
						JOINT LeftForeArm
						{
							OFFSET 22.049376 0.000000 0.000000
							CHANNELS 3 Xrotation Yrotation Zrotation
							JOINT LeftHand
							{
								OFFSET 23.009392 0.000000 0.000000
								CHANNELS 3 Xrotation Yrotation Zrotation
								JOINT LeftHandThumb1
								{
									OFFSET 3.507191 -2.063065 3.133727
									CHANNELS 3 Xrotation Yrotation Zrotation
									JOINT LeftHandThumb2
									{
										OFFSET 3.101337 -1.790558 1.790558
										CHANNELS 3 Xrotation Yrotation Zrotation
										JOINT LeftHandThumb3
										{
											OFFSET 3.058640 -1.765907 1.765906
											CHANNELS 3 Xrotation Yrotation Zrotation
											End Site
											{
												OFFSET -0.415260 3.926476 -0.049563
											}
										}
									}
								}
								JOINT LeftHandIndex1
								{
									OFFSET 11.334419 -0.901459 3.706815
									CHANNELS 3 Xrotation Yrotation Zrotation
									JOINT LeftHandIndex2
									{
										OFFSET 3.283112 0.000000 0.000000
										CHANNELS 3 Xrotation Yrotation Zrotation
										JOINT LeftHandIndex3
										{
											OFFSET 3.323853 0.000000 0.000000
											CHANNELS 3 Xrotation Yrotation Zrotation
											End Site
											{
												OFFSET -1.135597 3.097809 0.402452
											}
										}
									}
								}
								JOINT LeftHandMiddle1
								{
									OFFSET 11.335861 0.000000 0.000000
									CHANNELS 3 Xrotation Yrotation Zrotation
									JOINT LeftHandMiddle2
									{
										OFFSET 3.410492 0.000000 0.000000
										CHANNELS 3 Xrotation Yrotation Zrotation
										JOINT LeftHandMiddle3
										{
											OFFSET 3.312172 0.000000 0.000000
											CHANNELS 3 Xrotation Yrotation Zrotation
											End Site
											{
												OFFSET -1.150200 3.080154 0.400270
											}
										}
									}
								}
								JOINT LeftHandRing1
								{
									OFFSET 11.514786 -0.013176 -3.003090
									CHANNELS 3 Xrotation Yrotation Zrotation
									JOINT LeftHandRing2
									{
										OFFSET 3.053307 0.000000 0.000000
										CHANNELS 3 Xrotation Yrotation Zrotation
										JOINT LeftHandRing3
										{
											OFFSET 3.295807 0.000000 0.000000
											CHANNELS 3 Xrotation Yrotation Zrotation
											End Site
											{
												OFFSET -1.281006 3.013344 0.375733
											}
										}
									}
								}
								JOINT LeftHandPinky1
								{
									OFFSET 10.518692 -0.960396 -5.730441
									CHANNELS 3 Xrotation Yrotation Zrotation
									JOINT LeftHandPinky2
									{
										OFFSET 2.861649 0.000000 0.000000
										CHANNELS 3 Xrotation Yrotation Zrotation
										JOINT LeftHandPinky3
										{
											OFFSET 2.863380 0.000000 0.000000
											CHANNELS 3 Xrotation Yrotation Zrotation
											End Site
											{
												OFFSET -0.843597 2.711159 0.369971
											}
										}
									}
								}
							}
							JOINT LSleeve
							{
								OFFSET 6.676277 -0.344902 -1.011730
								CHANNELS 3 Xrotation Yrotation Zrotation
								End Site
								{
									OFFSET 0.000000 14.885353 0.000000
								}
							}
						}
					}
				}
				JOINT RightShoulder
				{
					OFFSET -6.197800 13.665199 -4.064700
					CHANNELS 3 Xrotation Yrotation Zrotation
					JOINT RightArm
					{
						OFFSET -7.778100 -0.187103 -1.709300
						CHANNELS 3 Xrotation Yrotation Zrotation
						JOINT RightForeArm
						{
							OFFSET -22.049376 0.000000 0.000000
							CHANNELS 3 Xrotation Yrotation Zrotation
							JOINT RightHand
							{
								OFFSET -23.009392 0.000000 0.000000
								CHANNELS 3 Xrotation Yrotation Zrotation
								JOINT RightHandThumb1
								{
									OFFSET -3.507191 -2.063065 3.133727
									CHANNELS 3 Xrotation Yrotation Zrotation
									JOINT RightHandThumb2
									{
										OFFSET -3.101337 -1.790558 1.790558
										CHANNELS 3 Xrotation Yrotation Zrotation
										JOINT RightHandThumb3
										{
											OFFSET -3.058640 -1.765907 1.765906
											CHANNELS 3 Xrotation Yrotation Zrotation
											End Site
											{
												OFFSET 0.415260 3.926476 -0.049563
											}
										}
									}
								}
								JOINT RightHandIndex1
								{
									OFFSET -11.334419 -0.901459 3.706815
									CHANNELS 3 Xrotation Yrotation Zrotation
									JOINT RightHandIndex2
									{
										OFFSET -3.283112 0.000000 0.000000
										CHANNELS 3 Xrotation Yrotation Zrotation
										JOINT RightHandIndex3
										{
											OFFSET -3.323853 0.000000 0.000000
											CHANNELS 3 Xrotation Yrotation Zrotation
											End Site
											{
												OFFSET 1.135597 3.097809 0.402452
											}
										}
									}
								}
								JOINT RightHandMiddle1
								{
									OFFSET -11.335861 0.000000 0.000000
									CHANNELS 3 Xrotation Yrotation Zrotation
									JOINT RightHandMiddle2
									{
										OFFSET -3.410492 0.000000 0.000000
										CHANNELS 3 Xrotation Yrotation Zrotation
										JOINT RightHandMiddle3
										{
											OFFSET -3.312172 0.000000 0.000000
											CHANNELS 3 Xrotation Yrotation Zrotation
											End Site
											{
												OFFSET 1.150200 3.080154 0.400270
											}
										}
									}
								}
								JOINT RightHandRing1
								{
									OFFSET -11.514786 -0.013176 -3.003090
									CHANNELS 3 Xrotation Yrotation Zrotation
									JOINT RightHandRing2
									{
										OFFSET -3.053307 0.000000 0.000000
										CHANNELS 3 Xrotation Yrotation Zrotation
										JOINT RightHandRing3
										{
											OFFSET -3.295807 0.000000 0.000000
											CHANNELS 3 Xrotation Yrotation Zrotation
											End Site
											{
												OFFSET 1.281006 3.013344 0.375733
											}
										}
									}
								}
								JOINT RightHandPinky1
								{
									OFFSET -10.518692 -0.960396 -5.730441
									CHANNELS 3 Xrotation Yrotation Zrotation
									JOINT RightHandPinky2
									{
										OFFSET -2.861649 0.000000 0.000000
										CHANNELS 3 Xrotation Yrotation Zrotation
										JOINT RightHandPinky3
										{
											OFFSET -2.863380 0.000000 0.000000
											CHANNELS 3 Xrotation Yrotation Zrotation
											End Site
											{
												OFFSET 0.843597 2.711159 0.369971
											}
										}
									}
								}
							}
							JOINT RSleeve
							{
								OFFSET -6.676277 -0.344902 -1.011730
								CHANNELS 3 Xrotation Yrotation Zrotation
								End Site
								{
									OFFSET 0.000000 14.885353 0.000000
								}
							}
						}
					}
				}
				JOINT Backpack
				{
					OFFSET 0.000000 -2.471497 36.677502
					CHANNELS 3 Xrotation Yrotation Zrotation
					End Site
					{
						OFFSET 0.000000 20.427315 0.000000
					}
				}
				JOINT Hood
				{
					OFFSET 0.000000 18.754097 -10.431000
					CHANNELS 3 Xrotation Yrotation Zrotation
					JOINT Hood1
					{
						OFFSET 0.000000 -5.011002 -7.685901
						CHANNELS 3 Xrotation Yrotation Zrotation
						End Site
						{
							OFFSET 0.000000 9.175140 0.000000
						}
					}
				}
				JOINT LHoodieString
				{
					OFFSET 5.250500 16.397697 3.089900
					CHANNELS 3 Xrotation Yrotation Zrotation
					JOINT LHoodieString1
					{
						OFFSET 0.257700 -6.364304 3.694600
						CHANNELS 3 Xrotation Yrotation Zrotation
						JOINT LHoodieString2
						{
							OFFSET 0.000000 -9.643799 2.679100
							CHANNELS 3 Xrotation Yrotation Zrotation
							End Site
							{
								OFFSET 0.000000 10.009018 0.000000
							}
						}
					}
				}
				JOINT RHoodieString
				{
					OFFSET -5.250500 16.397697 3.089900
					CHANNELS 3 Xrotation Yrotation Zrotation
					JOINT RHoodieString1
					{
						OFFSET -0.257700 -6.364304 3.694600
						CHANNELS 3 Xrotation Yrotation Zrotation
						JOINT RHoodieString2
						{
							OFFSET 0.000000 -9.643799 2.679100
							CHANNELS 3 Xrotation Yrotation Zrotation
							End Site
							{
								OFFSET 0.000000 10.009018 0.000000
							}
						}
					}
				}
			}
			JOINT LBackpack_Strap
			{
				OFFSET 15.223200 -7.719803 -6.610900
				CHANNELS 3 Xrotation Yrotation Zrotation
				End Site
				{
					OFFSET 0.000000 16.040596 0.000000
				}
			}
			JOINT RBackpack_Strap
			{
				OFFSET -15.223000 -7.719803 -6.610900
				CHANNELS 3 Xrotation Yrotation Zrotation
				End Site
				{
					OFFSET 0.000000 16.040596 0.000000
				}
			}
		}
	}
	JOINT BoyFacialAnim_Joint
	{
		OFFSET 1.000000 -82.208099 -1.550900
		CHANNELS 3 Xrotation Yrotation Zrotation
		End Site
		{
			OFFSET 0.000000 30.012791 0.000000
		}
	}
}
MOTION
Frames: 4
Frame Time: 0.033333
-4.756300 29.536064 -57.049026 14.361135 -84.578963 51.679018 -0.000001 -0.000000 -0.000003 -36.722338 -7.664824 24.472510 48.540877 5.442583 12.840601 30.417237 3.340998 -7.884189 -0.000001 0.000000 0.000001 -0.000001 0.000000 0.000001 0.000001 0.000001 0.000001 -90.750511 -37.656861 -26.482517 104.983190 1.841502 4.823101 23.629820 3.747105 11.764179 0.000001 0.000002 -0.000001 0.000001 0.000002 -0.000001 -0.000001 0.000001 -0.000000 6.820993 3.574705 -16.106254 1.507947 1.610554 -5.972567 1.518444 1.550422 -5.986713 8.708384 -0.551983 7.403631 -22.225287 17.334428 -17.021716 -0.000001 0.000001 -0.000000 -0.000001 0.000001 -0.000000 -0.000001 0.000001 -0.000000 4.638571 -10.202592 -10.693483 -43.506878 -8.339873 -31.608094 0.859148 -29.163173 0.337597 7.306106 -8.602398 -5.145361 40.109961 -15.297035 -0.360467 5.639870 28.097711 11.338785 0.000001 0.000002 0.000002 6.882138 2.840123 -61.140377 8.248130 7.640131 -89.897891 -0.000000 -0.000003 -0.000002 -2.345644 4.688893 -62.655238 8.754168 9.897147 -87.051273 0.000002 -0.000002 -0.000000 -9.042556 10.045631 -60.766103 8.524103 9.508908 -66.893056 -0.000003 -0.000001 -0.000002 -17.947007 14.755029 -51.485754 8.868412 8.667074 -84.812023 0.000001 -0.000001 0.000001 -0.000000 -0.000001 -0.000002 0.494033 12.523130 11.172724 -5.456821 19.483810 48.327949 -2.325091 36.051070 1.369559 18.716576 36.538124 31.152544 -2.878012 -5.686382 9.952415 1.632476 -20.175195 -7.608687 -0.000001 0.000000 -0.000003 1.703831 -2.050950 17.134875 0.753368 -2.838709 24.745692 -0.000000 -0.000001 0.000003 0.757544 -7.743750 13.960729 2.535042 -6.053700 37.472009 0.000003 0.000001 0.000003 0.127250 -12.053141 15.970828 2.992102 -5.594110 39.697589 0.000001 -0.000003 0.000003 2.788426 -21.226652 24.183256 4.470960 -4.449642 34.124988 0.000002 -0.000003 -0.000005 -0.000000 -0.000002 0.000002 -0.000000 -0.000000 0.000001 -0.000000 -0.000000 0.000001 -0.000000 -0.000000 0.000001 -0.000000 -0.000000 0.000001 -0.000000 -0.000000 -0.000000 -0.000000 -0.000002 -0.000000 -0.000000 -0.000000 0.000001 -0.000000 -0.000000 -0.000000 -0.000000 -0.000002 -0.000000 0.000001 -0.000001 -0.000002 0.000001 -0.000001 -0.000002 -0.000001 -0.000000 -0.000003 
-2.573444 22.384659 -59.449112 -12.861413 -84.310858 30.966326 -0.000000 -0.000000 -0.000001 -40.951058 -7.868275 21.055199 49.206209 1.238887 12.790396 40.681368 4.003518 -2.255496 -0.000001 -0.000000 -0.000000 -0.000001 -0.000000 -0.000000 -0.000001 0.000001 -0.000001 -94.068268 -34.337707 -20.402316 105.376514 0.353094 3.768378 28.371936 4.406449 16.514617 0.000002 0.000001 -0.000002 0.000002 0.000001 -0.000002 -0.000000 -0.000000 -0.000001 10.017589 0.447654 -16.900113 2.469376 0.646976 -6.846312 2.479888 0.550682 -6.850977 9.218743 -0.296314 8.007482 -17.150772 15.254966 -14.165237 0.000000 -0.000000 0.000000 0.000000 -0.000000 0.000000 0.000000 -0.000000 0.000000 4.802668 -11.127353 -9.739081 -42.082329 -11.154346 -25.112411 0.920970 -24.154371 0.270975 11.241599 -7.635160 -0.410196 40.109965 -15.297039 -0.360463 5.639872 28.097709 11.338782 0.000001 0.000001 -0.000000 6.882141 2.840118 -61.140377 8.248131 7.640133 -89.897884 -0.000001 -0.000003 -0.000001 -2.345641 4.688892 -62.655238 8.754166 9.897145 -87.051266 0.000001 -0.000004 0.000003 -9.042557 10.045626 -60.766096 8.524103 9.508909 -66.893056 -0.000004 0.000001 -0.000004 -17.947000 14.755029 -51.485754 8.868413 8.667081 -84.812023 -0.000002 -0.000000 0.000001 0.000001 0.000003 -0.000001 0.633337 13.706424 9.492705 -3.655765 19.791153 43.311117 -2.120446 37.976408 1.295951 11.529225 44.348787 29.955396 -2.485364 -5.986408 10.519871 1.606556 -20.065077 -7.575382 0.000003 0.000003 0.000000 1.188483 -2.131778 17.830330 0.724462 -2.775645 24.267329 -0.000001 -0.000000 0.000005 0.680976 -7.702957 13.656792 2.443467 -5.931753 36.521039 0.000002 -0.000001 0.000001 0.160512 -12.045800 15.614692 2.902017 -5.483379 38.855519 -0.000001 0.000000 0.000000 2.719816 -21.027531 22.937346 4.294186 -4.150227 32.014551 -0.000000 0.000001 0.000002 -0.000001 -0.000000 -0.000003 -0.000000 0.000000 -0.000000 -0.000000 0.000000 -0.000000 -0.000000 0.000000 -0.000000 -0.000000 0.000000 -0.000000 -0.000000 0.000000 0.000000 0.000000 -0.000001 -0.000000 -0.000000 0.000000 -0.000000 -0.000000 0.000000 0.000000 0.000000 -0.000001 -0.000000 -0.000000 -0.000001 -0.000001 -0.000000 -0.000001 -0.000001 -0.000000 -0.000000 -0.000001 
-0.593399 16.516502 -62.625286 -52.825366 -76.248906 -0.310439 0.000000 0.000000 0.000003 -43.103589 -7.477828 16.002662 45.728619 -3.855842 11.355702 44.539609 -1.340895 -9.133396 0.000003 0.000000 -0.000001 0.000003 0.000000 -0.000001 -0.000000 -0.000000 0.000001 -89.790097 -31.347184 -16.337864 102.738811 -0.629675 3.727014 24.522256 2.296018 13.277371 -0.000003 0.000000 -0.000001 -0.000003 0.000000 -0.000001 0.000003 0.000000 -0.000001 16.245685 -4.715425 -18.115504 5.036464 -0.947862 -7.166923 5.033482 -1.031592 -7.154162 9.078842 0.009133 9.133188 -9.477824 12.506249 -10.145487 0.000000 0.000001 -0.000001 0.000000 0.000001 -0.000001 0.000000 0.000001 -0.000001 4.918348 -12.833213 -10.609758 -39.347439 -18.822104 -15.765986 0.960244 -20.914674 0.221982 13.872819 -6.584337 2.672063 40.109965 -15.297033 -0.360466 5.639869 28.097706 11.338786 -0.000001 -0.000004 0.000002 6.882141 2.840125 -61.140370 8.248129 7.640134 -89.897884 -0.000002 0.000002 -0.000005 -2.345640 4.688893 -62.655238 8.754167 9.897145 -87.051273 0.000001 0.000002 -0.000001 -9.042556 10.045625 -60.766103 8.524097 9.508903 -66.893056 -0.000006 -0.000000 -0.000000 -17.947002 14.755029 -51.485751 8.868414 8.667077 -84.812023 -0.000004 0.000001 -0.000002 -0.000001 0.000001 -0.000000 0.762592 12.358890 7.767759 -2.205989 20.864838 36.406964 -0.253263 42.155948 0.013276 -14.627436 53.517292 36.040091 -2.344264 -6.092924 10.723003 1.597695 -20.025531 -7.563650 -0.000003 -0.000002 0.000001 0.786271 -2.204213 18.374198 0.700075 -2.721138 23.856307 0.000002 -0.000001 -0.000000 0.625488 -7.672885 13.436201 2.369717 -5.829999 35.737134 0.000002 0.000000 -0.000000 0.183305 -12.040941 15.383336 2.832896 -5.395777 38.197495 0.000000 0.000002 -0.000001 2.685246 -20.919322 22.265530 4.175071 -3.929425 30.481751 -0.000001 0.000000 0.000002 -0.000002 -0.000001 -0.000001 0.000001 -0.000000 -0.000001 0.000001 -0.000000 -0.000001 0.000001 -0.000000 -0.000001 0.000001 -0.000000 -0.000001 0.000001 -0.000000 -0.000000 -0.000001 -0.000000 -0.000000 0.000001 -0.000000 -0.000001 0.000001 -0.000000 -0.000000 -0.000001 -0.000000 -0.000000 0.000000 -0.000001 0.000002 0.000000 -0.000001 0.000002 0.000000 0.000000 0.000003 
1.096528 14.723808 -64.856567 -78.054712 -67.401038 -10.535814 -0.000000 0.000001 0.000001 -36.624407 -3.887901 3.203637 38.702939 -5.725799 7.872730 43.669412 -4.590773 -18.423259 0.000001 -0.000001 -0.000002 0.000001 -0.000001 -0.000002 -0.000000 -0.000002 0.000000 -83.497287 -19.728525 -18.219417 98.085990 -3.412057 2.485213 27.016190 1.710585 8.748870 0.000001 0.000001 -0.000000 0.000001 0.000001 -0.000000 0.000000 0.000000 0.000000 25.211883 -3.155146 -17.325550 8.029570 -0.230869 -6.137805 8.024802 -0.262377 -6.141424 9.085656 -1.496915 9.034509 1.975006 6.226991 -10.868539 0.000001 0.000000 0.000001 0.000001 0.000000 0.000001 0.000001 0.000000 0.000001 7.076107 -15.884481 -14.159740 -35.427054 -32.893218 -13.274186 0.948505 -21.715811 0.232560 13.810376 -6.010640 2.918147 40.109965 -15.297037 -0.360465 5.639875 28.097713 11.338788 0.000001 0.000002 0.000002 6.882140 2.840124 -61.140377 8.248134 7.640135 -89.897891 -0.000001 -0.000001 0.000001 -2.345641 4.688898 -62.655238 8.754167 9.897146 -87.051273 -0.000000 0.000001 -0.000003 -9.042557 10.045630 -60.766103 8.524109 9.508902 -66.893056 -0.000001 -0.000000 0.000001 -17.947003 14.755029 -51.485758 8.868412 8.667075 -84.812023 0.000002 0.000001 -0.000004 -0.000000 -0.000002 -0.000001 0.784023 8.201235 5.295834 -3.555821 20.956576 30.090569 -2.028887 54.010913 1.336899 -24.107957 25.237590 19.892735 -2.597348 -5.804421 10.562247 1.625741 -20.154281 -7.605564 -0.000001 0.000001 0.000001 0.524702 -2.255750 18.728191 0.681274 -2.678478 23.535094 -0.000001 0.000000 0.000004 0.595566 -7.656533 13.317027 2.316973 -5.755508 35.167770 0.000002 0.000001 0.000002 0.190082 -12.039600 15.300218 2.788467 -5.338307 37.768965 0.000000 0.000001 0.000001 2.673069 -20.888417 22.067441 4.114061 -3.808980 29.654448 -0.000000 -0.000002 -0.000000 -0.000001 0.000003 0.000003 -0.000001 0.000002 -0.000003 -0.000001 0.000002 -0.000003 -0.000001 0.000002 -0.000003 -0.000001 0.000002 -0.000003 -0.000001 0.000002 -0.000003 -0.000002 0.000001 -0.000002 -0.000001 0.000002 -0.000003 -0.000001 0.000002 -0.000003 -0.000002 0.000001 -0.000002 -0.000000 -0.000001 0.000002 -0.000000 -0.000001 0.000002 -0.000000 0.000001 0.000001 
